# Exported from Wings 3D 1.1.3
mtllib sverd.mtl
o cube1
#124 vertices, 136 faces
v -7.2367618e-2 7.2156016e-2 1.03983679
v 7.2367618e-2 7.2156016e-2 1.03983679
v -7.2367618e-2 7.2156016e-2 -0.10580061
v 7.2367618e-2 7.2156016e-2 -0.10580061
v 7.2367618e-2 7.2156016e-2 0.46701809
v -7.2367618e-2 7.2156016e-2 0.46701809
v 7.2367618e-2 7.2156016e-2 0.75342744
v -7.2367618e-2 7.2156016e-2 0.75342744
v -7.2367618e-2 7.2156016e-2 0.18060874
v 7.2367618e-2 7.2156016e-2 0.18060874
v 0.0000000e+0 0.10580061 0.18060874
v 0.0000000e+0 0.10580061 0.75342744
v 0.0000000e+0 0.10580061 0.46701809
v 0.0000000e+0 0.10580061 -0.10580061
v 0.0000000e+0 0.10580061 1.03983679
v -0.10580061 0.0000000e+0 0.18060874
v 0.10580061 0.0000000e+0 0.18060874
v -0.10580061 0.0000000e+0 0.75342744
v 0.10580061 0.0000000e+0 0.75342744
v -0.10580061 0.0000000e+0 0.46701809
v 0.10580061 0.0000000e+0 0.46701809
v 0.10580061 0.0000000e+0 -0.10580061
v -0.10580061 0.0000000e+0 -0.10580061
v 0.10580061 0.0000000e+0 1.03983679
v -0.10580061 0.0000000e+0 1.03983679
v 1.6232619e-17 0.14999475 1.14981111
v 0.14996828 0.0000000e+0 1.14981111
v -0.14996828 0.0000000e+0 1.14981111
v -0.10256267 0.10231211 1.14981111
v 0.10256267 0.10231211 1.14981111
v 8.9498360e-19 0.0000000e+0 1.26162379
v -0.10256267 0.10231211 1.07749398
v 0.10256267 0.10231211 1.07749398
v 0.0000000e+0 0.14999475 1.07749398
v 0.14996828 0.0000000e+0 1.07749398
v -0.14996828 0.0000000e+0 1.07749398
v 2.7256721e-17 0.14720077 -0.24551813
v 0.27296286 0.0000000e+0 -0.24551813
v -0.27296286 0.0000000e+0 -0.24551813
v 0.11616113 0.10040562 -0.24551813
v -0.11616113 0.10040562 -0.24551813
v -0.11616113 0.10040562 -0.11520802
v 0.11616113 0.10040562 -0.11520802
v 3.8015953e-18 0.14720077 -0.11520802
v 0.11616113 0.0000000e+0 -0.11520802
v -0.11616113 0.0000000e+0 -0.11520802
v 0.30747470 1.4016566e-18 -0.23235681
v 0.30747470 1.4016566e-18 -0.12836935
v 0.30747470 8.0123684e-2 -0.23235681
v 0.30747470 8.0123684e-2 -0.12836935
v -0.30747470 -1.8688754e-18 -0.23235681
v -0.30747470 -1.8688754e-18 -0.12836935
v -0.30747470 8.0123684e-2 -0.12836935
v -0.30747470 8.0123684e-2 -0.23235681
v 0.54573095 2.2482016e-18 -0.25335999
v 0.54573095 2.2482016e-18 -0.16527035
v 0.54573095 6.7874199e-2 -0.25335999
v 0.54573095 6.7874199e-2 -0.16527035
v -0.54573095 -2.2482016e-18 -0.25335999
v -0.54573095 -2.2482016e-18 -0.16527035
v -0.54573095 6.7874199e-2 -0.16527035
v -0.54573095 6.7874199e-2 -0.25335999
v 0.23582218 0.0000000e+0 -0.24551813
v -0.23582218 0.0000000e+0 -0.24551813
v -0.13741652 4.2039632e-2 -0.24551813
v 2.1689175e-17 5.4169883e-2 -0.24551813
v 0.13741652 4.2039632e-2 -0.24551813
v -0.66423693 -9.6265588e-18 -0.27114437
v 0.66423693 9.6265588e-18 -0.27114437
v 0.20988174 0.0000000e+0 -3.11174337
v -0.20988174 0.0000000e+0 -3.11174337
v -0.12230071 1.9926786e-2 -3.11174337
v 1.7776809e-17 2.5676524e-2 -3.11174337
v 0.12230071 1.9926786e-2 -3.11174337
v 0.15564264 0.0000000e+0 -4.51398392
v -0.15564264 0.0000000e+0 -4.51398392
v -9.0694906e-2 1.3620841e-2 -4.51398392
v 9.5964077e-18 1.7551042e-2 -4.51398392
v 9.0694906e-2 1.3620841e-2 -4.51398392
v -2.4286129e-17 0.0000000e+0 -5.30521683
v -7.2367618e-2 -7.2156016e-2 1.03983679
v 7.2367618e-2 -7.2156016e-2 1.03983679
v -7.2367618e-2 -7.2156016e-2 -0.10580061
v 7.2367618e-2 -7.2156016e-2 -0.10580061
v 7.2367618e-2 -7.2156016e-2 0.46701809
v -7.2367618e-2 -7.2156016e-2 0.46701809
v 7.2367618e-2 -7.2156016e-2 0.75342744
v -7.2367618e-2 -7.2156016e-2 0.75342744
v -7.2367618e-2 -7.2156016e-2 0.18060874
v 7.2367618e-2 -7.2156016e-2 0.18060874
v 1.0410452e-19 -0.10580061 0.18060874
v 1.0410452e-19 -0.10580061 0.75342744
v 1.0410452e-19 -0.10580061 0.46701809
v 1.0410452e-19 -0.10580061 -0.10580061
v 1.0410452e-19 -0.10580061 1.03983679
v 1.6380209e-17 -0.14999475 1.14981111
v -0.10256267 -0.10231211 1.14981111
v 0.10256267 -0.10231211 1.14981111
v -0.10256267 -0.10231211 1.07749398
v 0.10256267 -0.10231211 1.07749398
v 1.4759019e-19 -0.14999475 1.07749398
v 2.7401562e-17 -0.14720077 -0.24551813
v 0.11616113 -0.10040562 -0.24551813
v -0.11616113 -0.10040562 -0.24551813
v -0.11616113 -0.10040562 -0.11520802
v 0.11616113 -0.10040562 -0.11520802
v 3.9464363e-18 -0.14720077 -0.11520802
v 0.30747470 -8.0123684e-2 -0.23235681
v 0.30747470 -8.0123684e-2 -0.12836935
v -0.30747470 -8.0123684e-2 -0.12836935
v -0.30747470 -8.0123684e-2 -0.23235681
v 0.54573095 -6.7874199e-2 -0.25335999
v 0.54573095 -6.7874199e-2 -0.16527035
v -0.54573095 -6.7874199e-2 -0.16527035
v -0.54573095 -6.7874199e-2 -0.25335999
v -0.13741652 -4.2039632e-2 -0.24551813
v 2.1742477e-17 -5.4169883e-2 -0.24551813
v 0.13741652 -4.2039632e-2 -0.24551813
v -0.12230071 -1.9926786e-2 -3.11174337
v 1.7802074e-17 -2.5676524e-2 -3.11174337
v 0.12230071 -1.9926786e-2 -3.11174337
v -9.0694906e-2 -1.3620841e-2 -4.51398392
v 9.6136774e-18 -1.7551042e-2 -4.51398392
v 9.0694906e-2 -1.3620841e-2 -4.51398392
vt 8.8642072e-3 0.92097980
vt 2.3425925e-2 0.93527339
vt 4.2257591e-2 0.95364614
vt 6.0543593e-2 0.97256205
vt 7.4770097e-2 0.98718932
vt 0.11074841 0.50024540
vt 0.13247086 0.40862499
vt 0.16254321 0.44596361
vt 0.19207115 0.50955380
vt 0.20846608 0.52731686
vt 0.22130867 0.31170186
vt 0.22491936 0.54514263
vt 0.24136347 0.56296735
vt 0.24182546 0.86972121
vt 0.25604469 0.45050762
vt 0.25612037 0.35577115
vt 0.25775009 0.58072924
vt 0.27243680 0.46827026
vt 0.28888372 0.48611124
vt 0.29671164 0.81556539
vt 0.29947094 0.24272841
vt 0.30533022 0.50395227
vt 0.30982987 0.91682561
vt 0.31984260 0.83900830
vt 0.32002059 0.39148097
vt 0.32171941 0.52171308
vt 0.33640799 0.40924796
vt 0.34132354 0.29836803
vt 0.35285349 0.42707924
vt 0.35315337 0.87729663
vt 0.35418278 0.20315223
vt 0.36929898 0.44491052
vt 0.37554284 0.90183534
vt 0.37998354 0.73340158
vt 0.38398756 0.33244540
vt 0.38568638 0.46267751
vt 0.39410063 0.25923022
vt 0.39491171 0.53384071
vt 0.40037675 0.35020622
vt 0.40728902 0.76107531
vt 0.40918186 0.16554427
vt 0.40981785 0.54806775
vt 0.41682325 0.36804724
vt 0.42994909 0.56773254
vt 0.43327017 0.38588822
vt 0.43962474 0.79839892
vt 0.44621706 0.66804941
vt 0.44715383 0.22209029
vt 0.44795688 0.27342924
vt 0.44952115 0.58795396
vt 0.44966228 0.40365086
vt 0.45064461 0.66290124
vt 0.45297839 0.78621486
vt 0.46367952 0.60292534
vt 0.46434350 0.29119113
vt 0.46605492 0.82736622
vt 0.46668896 0.77428093
vt 0.48043445 0.70272827
vt 0.48078761 0.30901585
vt 0.48627801 0.67770629
vt 0.49724089 0.32684163
vt 0.49771797 0.11639046
vt 0.51363582 0.34460468
vt 0.51652368 0.75818055
vt 0.52299257 0.66539724
vt 0.52603343 0.59307014
vt 0.52656679 0.16194036
vt 0.53150494 0.58904902
vt 0.53699123 0.68051003
vt 0.53807170 0.62973087
vt 0.54312413 0.77289676
vt 0.56346712 0.62581683
vt 0.57114895 0.71850419
vt 0.58304831 0.86793123
vt 0.58906511 0.91039462
vt 0.59952310 0.81809792
vt 0.60104135 0.75284675
vt 0.60172818 0.52800411
vt 0.61274260 6.7812736e-2
vt 0.61797891 0.66987202
vt 0.62723400 0.55734483
vt 0.62888642 0.69824768
vt 0.63658682 0.10647926
vt 0.64079753 0.62273359
vt 0.64682551 0.92119688
vt 0.65038476 0.88598444
vt 0.65450810 0.61079966
vt 0.65687727 0.84873725
vt 0.66841719 0.59925373
vt 0.69001615 0.45125558
vt 0.69346312 0.62942591
vt 0.69557781 0.22354398
vt 0.70132018 7.7437538e-2
vt 0.70335148 0.74700112
vt 0.70804178 0.85820509
vt 0.70952891 0.89346407
vt 0.71108039 0.93024863
vt 0.71162258 0.47611063
vt 0.71308305 0.23987181
vt 0.73643885 0.26264830
vt 0.74820852 0.40066908
vt 0.75822733 0.84446257
vt 0.75848529 0.52448820
vt 0.75910775 0.28610855
vt 0.76783318 0.88103077
vt 0.77434486 0.91581844
vt 0.77535495 0.30368865
vt 0.77970214 0.55004759
vt 0.80361081 0.48702951
vt 0.81279782 0.80910254
vt 0.83099051 0.90019083
vt 0.83341032 0.85737160
vt 0.99283663 7.4263290e-3
vn -0.64266588 0.64183670 -0.41836135
vn 0.64266588 0.64183670 -0.41836135
vn -0.56639621 0.52519853 0.63510774
vn 0.56639621 0.52519853 0.63510774
vn 0.70756309 0.70665018 0.0000000e+0
vn -0.70756309 0.70665018 0.0000000e+0
vn 0.70756309 0.70665018 0.0000000e+0
vn -0.70756309 0.70665018 0.0000000e+0
vn -0.70756309 0.70665018 0.0000000e+0
vn 0.70756309 0.70665018 0.0000000e+0
vn 4.5912812e-17 1.00000000 0.0000000e+0
vn 9.1825625e-17 1.00000000 0.0000000e+0
vn 6.1217083e-17 1.00000000 0.0000000e+0
vn 3.7504485e-17 0.75284042 0.65820309
vn 1.8037413e-16 0.90257392 -0.43053491
vn -1.00000000 1.5295103e-17 0.0000000e+0
vn 1.00000000 4.5885309e-17 0.0000000e+0
vn -1.00000000 -1.5295103e-17 0.0000000e+0
vn 1.00000000 3.0590206e-17 0.0000000e+0
vn -1.00000000 1.5295103e-17 0.0000000e+0
vn 1.00000000 3.0590206e-17 0.0000000e+0
vn 0.78533969 3.8352436e-17 0.61906508
vn -0.78533969 -4.5120513e-18 0.61906508
vn 0.90267413 -1.4750680e-16 -0.43032478
vn -0.90267413 0.0000000e+0 -0.43032478
vn 4.9806413e-17 0.88684590 0.46206532
vn 0.88690852 0.0000000e+0 0.46194510
vn -0.88690852 1.6594990e-17 0.46194510
vn -0.63204750 0.63125466 0.44948138
vn 0.63204750 0.63125466 0.44948138
vn 7.1854443e-17 -1.7963611e-17 1.00000000
vn -0.64266588 0.64183670 -0.41836135
vn 0.64266588 0.64183670 -0.41836135
vn 1.4757883e-16 0.90257392 -0.43053491
vn 0.90267413 -1.4750680e-16 -0.43032478
vn -0.90267413 0.0000000e+0 -0.43032478
vn 8.1397325e-17 0.68005411 -0.73316192
vn 6.2651660e-2 2.1965393e-16 -0.99803546
vn -6.2651660e-2 -2.1899559e-17 -0.99803546
vn 0.16491216 0.55454162 -0.81565162
vn -0.16491216 0.55454162 -0.81565162
vn -0.24845494 0.58029843 0.77557971
vn 0.24845494 0.58029843 0.77557971
vn 7.4221677e-17 0.75882498 0.65129460
vn 0.18597932 -5.7416777e-19 0.98255366
vn -0.18597932 2.7401085e-17 0.98255366
vn 1.8597806e-2 1.7060632e-17 -0.99982705
vn 0.11094358 1.2337085e-32 0.99382671
vn 6.6879644e-2 0.72577468 -0.68467381
vn 0.13331066 0.70207086 0.69951753
vn -1.8597806e-2 -2.1435358e-17 -0.99982705
vn -0.11094358 2.5076886e-17 0.99382671
vn -0.13331066 0.70207086 0.69951753
vn -6.6879644e-2 0.72577468 -0.68467381
vn -0.11816648 0.0000000e+0 -0.99299380
vn 0.42721429 -6.1362520e-17 0.90415040
vn 0.11380921 0.68055104 -0.72380781
vn 0.47299319 0.64549493 0.59967803
vn 0.11816648 0.0000000e+0 -0.99299380
vn -0.42721429 -6.1362520e-17 0.90415040
vn -0.47299319 0.64549493 0.59967803
vn -0.11380921 0.68055104 -0.72380781
vn 0.29977571 3.6852429e-16 -0.95400971
vn -0.29977571 0.0000000e+0 -0.95400971
vn -0.13606945 0.68829495 -0.71255537
vn -7.3355330e-17 0.70308185 -0.71110893
vn 0.13606945 0.68829495 -0.71255537
vn -0.97246746 -1.5958074e-16 -0.23303872
vn 0.97246746 -1.0638716e-16 -0.23303872
vn 0.99961716 1.0452264e-16 -2.7668383e-2
vn -0.99961716 0.0000000e+0 -2.7668383e-2
vn -0.16226926 0.98671892 -7.3803563e-3
vn -9.0359007e-17 0.99997312 -7.3324535e-3
vn 0.16226926 0.98671892 -7.3803563e-3
vn 0.99322862 1.3130943e-16 -0.11617620
vn -0.99322862 0.0000000e+0 -0.11617620
vn -0.12760099 0.99163779 -1.9299667e-2
vn -7.9878612e-17 0.99990314 -1.3918045e-2
vn 0.12760099 0.99163779 -1.9299667e-2
vn 1.1102541e-15 1.7764065e-15 -1.00000000
vn -0.64266588 -0.64183670 -0.41836135
vn 0.64266588 -0.64183670 -0.41836135
vn -0.56639621 -0.52519853 0.63510774
vn 0.56639621 -0.52519853 0.63510774
vn 0.70756309 -0.70665018 0.0000000e+0
vn -0.70756309 -0.70665018 -2.0397142e-20
vn 0.70756309 -0.70665018 0.0000000e+0
vn -0.70756309 -0.70665018 -2.0397142e-20
vn -0.70756309 -0.70665018 -2.0397142e-20
vn 0.70756309 -0.70665018 0.0000000e+0
vn 7.6521354e-17 -1.00000000 -2.1123381e-20
vn 1.0712990e-16 -1.00000000 -2.1123381e-20
vn 1.0712990e-16 -1.00000000 -2.1123381e-20
vn 6.0944788e-17 -0.75284042 0.65820309
vn 1.4757883e-16 -0.90257392 -0.43053491
vn 6.6408551e-17 -0.88684590 0.46206532
vn -0.63204750 -0.63125466 0.44948138
vn 0.63204750 -0.63125466 0.44948138
vn -0.64266588 -0.64183670 -0.41836135
vn 0.64266588 -0.64183670 -0.41836135
vn 1.4757883e-16 -0.90257392 -0.43053491
vn 8.1397325e-17 -0.68005411 -0.73316192
vn 0.16491216 -0.55454162 -0.81565162
vn -0.16491216 -0.55454162 -0.81565162
vn -0.24845494 -0.58029843 0.77557971
vn 0.24845494 -0.58029843 0.77557971
vn 7.8860532e-17 -0.75882498 0.65129460
vn 6.6879644e-2 -0.72577468 -0.68467381
vn 0.13331066 -0.70207086 0.69951753
vn -0.13331066 -0.70207086 0.69951753
vn -6.6879644e-2 -0.72577468 -0.68467381
vn 0.11380921 -0.68055104 -0.72380781
vn 0.47299319 -0.64549493 0.59967803
vn -0.47299319 -0.64549493 0.59967803
vn -0.11380921 -0.68055104 -0.72380781
vn -0.13606945 -0.68829495 -0.71255537
vn -6.8464974e-17 -0.70308185 -0.71110893
vn 0.13606945 -0.68829495 -0.71255537
vn -0.16226926 -0.98671892 -7.3803563e-3
vn -9.0359007e-17 -0.99997312 -7.3324535e-3
vn 0.16226926 -0.98671892 -7.3803563e-3
vn -0.12760099 -0.99163779 -1.9299667e-2
vn -8.3351595e-17 -0.99990314 -1.3918045e-2
vn 0.12760099 -0.99163779 -1.9299667e-2
g cube1_cube1_auv
usemtl cube1_auv
f 1/85/1 32/86/32 34/96/34 15/97/15
f 2/106/2 33/105/33 35/112/35 24/111/24
f 3/10/3 9/18/9 11/19/11 14/12/14
f 3/10/3 23/9/23 16/15/16 9/18/9
f 3/60/3 42/58/42 46/47/46 23/52/23
f 4/13/4 10/22/10 17/26/17 22/17/22
f 4/13/4 14/12/14 11/19/11 10/22/10
f 4/70/4 43/72/43 44/69/44 14/65/14
f 5/32/5 7/45/7 19/51/19 21/36/21
f 5/32/5 13/29/13 12/43/12 7/45/7
f 5/32/5 21/36/21 17/26/17 10/22/10
f 6/27/6 8/39/8 12/43/12 13/29/13
f 6/27/6 13/29/13 11/19/11 9/18/9
f 6/27/6 20/25/20 18/35/18 8/39/8
f 7/45/7 12/43/12 15/59/15 2/61/2
f 8/39/8 18/35/18 25/49/25 1/55/1
f 9/18/9 16/15/16 20/25/20 6/27/6
f 10/22/10 11/19/11 13/29/13 5/32/5
f 14/65/14 44/69/44 42/58/42 3/60/3
f 15/59/15 12/43/12 8/39/8 1/55/1
f 15/97/15 34/96/34 33/105/33 2/106/2
f 16/15/16 89/18/89 86/27/86 20/25/20
f 17/26/17 90/22/90 84/13/84 22/17/22
f 18/35/18 88/39/88 81/55/81 25/49/25
f 19/51/19 87/45/87 85/32/85 21/36/21
f 20/25/20 86/27/86 88/39/88 18/35/18
f 21/36/21 85/32/85 90/22/90 17/26/17
f 22/66/22 45/68/45 43/72/43 4/70/4
f 22/66/22 84/70/84 106/72/106 45/68/45
f 23/9/23 83/10/83 89/18/89 16/15/16
f 24/63/24 19/51/19 7/45/7 2/61/2
f 24/63/24 82/61/82 87/45/87 19/51/19
f 25/75/25 36/74/36 32/86/32 1/85/1
f 25/75/25 81/85/81 99/86/99 36/74/36
f 26/95/26 29/88/29 31/94/31
f 26/95/26 34/96/34 32/86/32 29/88/29
f 27/110/27 98/102/98 100/105/100 35/112/35
f 28/76/28 29/88/29 32/86/32 36/74/36
f 28/76/28 31/94/31 29/88/29
f 28/76/28 97/88/97 31/94/31
f 30/102/30 31/94/31 27/110/27
f 30/102/30 33/105/33 34/96/34 26/95/26
f 31/94/31 30/102/30 26/95/26
f 31/94/31 97/88/97 96/95/96
f 31/94/31 98/102/98 27/110/27
f 35/112/35 33/105/33 30/102/30 27/110/27
f 35/112/35 100/105/100 82/106/82 24/111/24
f 36/74/36 99/86/99 97/88/97 28/76/28
f 37/37/37 41/28/41 42/21/42 44/31/44
f 37/77/37 66/73/66 65/80/65 41/82/41
f 38/53/38 40/71/40 49/56/49 47/46/47
f 38/53/38 63/57/63 67/64/67 40/71/40
f 38/53/38 103/71/103 118/64/118 63/57/63
f 39/87/39 104/82/104 111/91/111 51/89/51
f 40/71/40 67/64/67 66/73/66 37/77/37
f 41/28/41 54/16/54 53/11/53 42/21/42
f 41/82/41 65/80/65 64/84/64 39/87/39
f 42/58/42 53/40/53 52/34/52 46/47/46
f 43/41/43 50/62/50 49/67/49 40/48/40
f 44/31/44 43/41/43 40/48/40 37/37/37
f 45/68/45 48/78/48 50/81/50 43/72/43
f 45/68/45 106/72/106 109/81/109 48/78/48
f 46/47/46 105/58/105 83/60/83 23/52/23
f 47/46/47 49/56/49 57/33/57 55/30/55
f 47/46/47 108/56/108 103/71/103 38/53/38
f 48/78/48 56/90/56 58/98/58 50/81/50
f 48/78/48 109/81/109 113/98/113 56/90/56
f 50/62/50 58/79/58 57/83/57 49/67/49
f 51/89/51 54/91/54 41/82/41 39/87/39
f 51/89/51 111/91/111 115/108/115 59/103/59
f 52/34/52 110/40/110 105/58/105 46/47/46
f 53/40/53 61/24/61 60/20/60 52/34/52
f 54/16/54 62/8/62 61/7/61 53/11/53
f 55/30/55 112/33/112 108/56/108 47/46/47
f 56/90/56 69/101/69 58/98/58
f 56/90/56 113/98/113 69/101/69
f 57/33/57 69/23/69 55/30/55
f 58/79/58 69/93/69 57/83/57
f 59/103/59 62/108/62 54/91/54 51/89/51
f 59/103/59 68/109/68 62/108/62
f 59/103/59 115/108/115 68/109/68
f 60/20/60 114/24/114 110/40/110 52/34/52
f 61/24/61 68/14/68 60/20/60
f 62/8/62 68/6/68 61/7/61
f 63/1/63 70/38/70 74/42/74 67/2/67
f 63/1/63 118/2/118 121/42/121 70/38/70
f 64/84/64 116/80/116 104/82/104 39/87/39
f 65/4/65 72/50/72 71/54/71 64/5/64
f 66/3/66 73/44/73 72/50/72 65/4/65
f 67/2/67 74/42/74 73/44/73 66/3/66
f 68/14/68 114/24/114 60/20/60
f 69/23/69 112/33/112 55/30/55
f 70/38/70 75/92/75 79/99/79 74/42/74
f 70/38/70 121/42/121 124/99/124 75/92/75
f 71/54/71 119/50/119 116/4/116 64/5/64
f 72/50/72 77/104/77 76/107/76 71/54/71
f 73/44/73 78/100/78 77/104/77 72/50/72
f 74/42/74 79/99/79 78/100/78 73/44/73
f 75/92/75 80/113/80 79/99/79
f 75/92/75 124/99/124 80/113/80
f 76/107/76 122/104/122 119/50/119 71/54/71
f 77/104/77 80/113/80 76/107/76
f 78/100/78 80/113/80 77/104/77
f 79/99/79 80/113/80 78/100/78
f 80/113/80 122/104/122 76/107/76
f 81/55/81 88/39/88 92/43/92 95/59/95
f 82/61/82 95/59/95 92/43/92 87/45/87
f 82/106/82 100/105/100 101/96/101 95/97/95
f 83/60/83 105/58/105 107/69/107 94/65/94
f 85/32/85 93/29/93 91/19/91 90/22/90
f 87/45/87 92/43/92 93/29/93 85/32/85
f 89/18/89 91/19/91 93/29/93 86/27/86
f 90/22/90 91/19/91 94/12/94 84/13/84
f 93/29/93 92/43/92 88/39/88 86/27/86
f 94/12/94 91/19/91 89/18/89 83/10/83
f 94/65/94 107/69/107 106/72/106 84/70/84
f 95/97/95 101/96/101 99/86/99 81/85/81
f 96/95/96 98/102/98 31/94/31
f 96/95/96 101/96/101 100/105/100 98/102/98
f 97/88/97 99/86/99 101/96/101 96/95/96
f 102/37/102 103/48/103 106/41/106 107/31/107
f 102/77/102 117/73/117 118/64/118 103/71/103
f 103/48/103 108/67/108 109/62/109 106/41/106
f 104/82/104 116/80/116 117/73/117 102/77/102
f 105/21/105 110/11/110 111/16/111 104/28/104
f 107/31/107 105/21/105 104/28/104 102/37/102
f 108/67/108 112/83/112 113/79/113 109/62/109
f 110/11/110 114/7/114 115/8/115 111/16/111
f 112/83/112 69/93/69 113/79/113
f 114/7/114 68/6/68 115/8/115
f 116/4/116 119/50/119 120/44/120 117/3/117
f 117/3/117 120/44/120 121/42/121 118/2/118
f 119/50/119 122/104/122 123/100/123 120/44/120
f 120/44/120 123/100/123 124/99/124 121/42/121
f 122/104/122 80/113/80 123/100/123
f 123/100/123 80/113/80 124/99/124
