# Exported from Wings 3D 2.1.5
mtllib untitled.mtl
o sphere1
#114 vertices, 224 faces
v 0.38268343 0.92387953 0.0000000e+0
v 0.35355339 0.92387953 0.14644661
v 0.27059805 0.92387953 0.27059805
v 0.14644661 0.92387953 0.35355339
v 2.3432602e-17 0.92387953 0.38268343
v -0.14644661 0.92387953 0.35355339
v -0.27059805 0.92387953 0.27059805
v -0.35355339 0.92387953 0.14644661
v -0.38268343 0.92387953 4.6865204e-17
v -0.35355339 0.92387953 -0.14644661
v -0.27059805 0.92387953 -0.27059805
v -0.14644661 0.92387953 -0.35355339
v -7.0297806e-17 0.92387953 -0.38268343
v 0.14644661 0.92387953 -0.35355339
v 0.27059805 0.92387953 -0.27059805
v 0.35355339 0.92387953 -0.14644661
v 0.70710678 0.70710678 0.0000000e+0
v 0.65328148 0.70710678 0.27059805
v 0.50000000 0.70710678 0.50000000
v 0.27059805 0.70710678 0.65328148
v 4.3297803e-17 0.70710678 0.70710678
v -0.27059805 0.70710678 0.65328148
v -0.50000000 0.70710678 0.50000000
v -0.65328148 0.70710678 0.27059805
v -0.70710678 0.70710678 8.6595606e-17
v -0.65328148 0.70710678 -0.27059805
v -0.50000000 0.70710678 -0.50000000
v -0.27059805 0.70710678 -0.65328148
v -1.2989341e-16 0.70710678 -0.70710678
v 0.27059805 0.70710678 -0.65328148
v 0.50000000 0.70710678 -0.50000000
v 0.65328148 0.70710678 -0.27059805
v 0.92387953 0.38268343 0.0000000e+0
v 0.85355339 0.38268343 0.35355339
v 0.65328148 0.38268343 0.65328148
v 0.35355339 0.38268343 0.85355339
v 5.6571306e-17 0.38268343 0.92387953
v -0.35355339 0.38268343 0.85355339
v -0.65328148 0.38268343 0.65328148
v -0.85355339 0.38268343 0.35355339
v -0.92387953 0.38268343 1.1314261e-16
v -0.85355339 0.38268343 -0.35355339
v -0.65328148 0.38268343 -0.65328148
v -0.35355339 0.38268343 -0.85355339
v -1.6971392e-16 0.38268343 -0.92387953
v 0.35355339 0.38268343 -0.85355339
v 0.65328148 0.38268343 -0.65328148
v 0.85355339 0.38268343 -0.35355339
v 1.00000000 6.1232340e-17 0.0000000e+0
v 0.92387953 6.1232340e-17 0.38268343
v 0.70710678 6.1232340e-17 0.70710678
v 0.38268343 6.1232340e-17 0.92387953
v 6.1232340e-17 6.1232340e-17 1.00000000
v -0.38268343 6.1232340e-17 0.92387953
v -0.70710678 6.1232340e-17 0.70710678
v -0.92387953 6.1232340e-17 0.38268343
v -1.00000000 6.1232340e-17 1.2246468e-16
v -0.92387953 6.1232340e-17 -0.38268343
v -0.70710678 6.1232340e-17 -0.70710678
v -0.38268343 6.1232340e-17 -0.92387953
v -1.8369702e-16 6.1232340e-17 -1.00000000
v 0.38268343 6.1232340e-17 -0.92387953
v 0.70710678 6.1232340e-17 -0.70710678
v 0.92387953 6.1232340e-17 -0.38268343
v 0.92387953 -0.38268343 0.0000000e+0
v 0.85355339 -0.38268343 0.35355339
v 0.65328148 -0.38268343 0.65328148
v 0.35355339 -0.38268343 0.85355339
v 5.6571306e-17 -0.38268343 0.92387953
v -0.35355339 -0.38268343 0.85355339
v -0.65328148 -0.38268343 0.65328148
v -0.85355339 -0.38268343 0.35355339
v -0.92387953 -0.38268343 1.1314261e-16
v -0.85355339 -0.38268343 -0.35355339
v -0.65328148 -0.38268343 -0.65328148
v -0.35355339 -0.38268343 -0.85355339
v -1.6971392e-16 -0.38268343 -0.92387953
v 0.35355339 -0.38268343 -0.85355339
v 0.65328148 -0.38268343 -0.65328148
v 0.85355339 -0.38268343 -0.35355339
v 0.70710678 -0.70710678 0.0000000e+0
v 0.65328148 -0.70710678 0.27059805
v 0.50000000 -0.70710678 0.50000000
v 0.27059805 -0.70710678 0.65328148
v 4.3297803e-17 -0.70710678 0.70710678
v -0.27059805 -0.70710678 0.65328148
v -0.50000000 -0.70710678 0.50000000
v -0.65328148 -0.70710678 0.27059805
v -0.70710678 -0.70710678 8.6595606e-17
v -0.65328148 -0.70710678 -0.27059805
v -0.50000000 -0.70710678 -0.50000000
v -0.27059805 -0.70710678 -0.65328148
v -1.2989341e-16 -0.70710678 -0.70710678
v 0.27059805 -0.70710678 -0.65328148
v 0.50000000 -0.70710678 -0.50000000
v 0.65328148 -0.70710678 -0.27059805
v 0.38268343 -0.92387953 0.0000000e+0
v 0.35355339 -0.92387953 0.14644661
v 0.27059805 -0.92387953 0.27059805
v 0.14644661 -0.92387953 0.35355339
v 2.3432602e-17 -0.92387953 0.38268343
v -0.14644661 -0.92387953 0.35355339
v -0.27059805 -0.92387953 0.27059805
v -0.35355339 -0.92387953 0.14644661
v -0.38268343 -0.92387953 4.6865204e-17
v -0.35355339 -0.92387953 -0.14644661
v -0.27059805 -0.92387953 -0.27059805
v -0.14644661 -0.92387953 -0.35355339
v -7.0297806e-17 -0.92387953 -0.38268343
v 0.14644661 -0.92387953 -0.35355339
v 0.27059805 -0.92387953 -0.27059805
v 0.35355339 -0.92387953 -0.14644661
v 0.0000000e+0 1.00000000 0.0000000e+0
v 0.0000000e+0 -1.00000000 0.0000000e+0
vt 1.5790070e-2 0.26238214
vt 2.1858496e-2 0.23829657
vt 2.2310536e-2 0.25044936
vt 2.2748130e-2 0.24974568
vt 2.3504199e-2 0.25450961
vt 2.3871029e-2 0.25007770
vt 2.4199102e-2 0.24809279
vt 2.5478548e-2 0.24860195
vt 0.13593004 0.45785806
vt 0.13875353 0.46436354
vt 0.13878536 0.47433613
vt 0.13889233 0.46382223
vt 0.13954670 0.46290715
vt 0.14009023 0.46350288
vt 0.14055127 0.46417113
vt 0.14058250 0.46791863
vt 0.23230858 0.14752661
vt 0.24041016 0.14219656
vt 0.24099869 0.14179751
vt 0.24120744 0.14563120
vt 0.24225056 0.14162977
vt 0.24324833 0.14100398
vt 0.24449481 0.14221591
vt 0.24676302 0.13510970
vt 0.28265743 0.65705878
vt 0.28709314 0.66069099
vt 0.28730038 0.65995499
vt 0.28743529 0.66028889
vt 0.28752218 0.66009268
vt 0.28974922 0.66043332
vt 0.28991338 0.66337752
vt 0.29365211 0.66639770
vt 0.32693625 0.36419774
vt 0.32899069 0.35970035
vt 0.32927544 0.35942477
vt 0.33021388 0.35655782
vt 0.33053555 0.36258212
vt 0.33071627 0.35901837
vt 0.33107158 0.35909641
vt 0.33121439 0.36046835
vt 0.42285456 0.56461414
vt 0.42576673 0.56511122
vt 0.42576908 0.56525187
vt 0.42623361 0.56683896
vt 0.42644036 0.56503378
vt 0.42795372 0.56776518
vt 0.42807402 0.56451301
vt 0.42940607 0.56758115
vt 0.46291706 0.82964924
vt 0.46419297 6.8236156e-2
vt 0.46912322 0.83332228
vt 0.47055924 0.83128130
vt 0.47093318 0.83135915
vt 0.47148201 0.82936800
vt 0.47231301 6.6710624e-2
vt 0.47261277 6.9317287e-2
vt 0.47300672 6.6635446e-2
vt 0.47418696 6.6038618e-2
vt 0.47444352 0.83391904
vt 0.47475740 0.82856223
vt 0.47564997 6.6855563e-2
vt 0.47703394 6.8713439e-2
vt 0.48197993 0.83135593
vt 0.48233431 6.7387892e-2
vt 0.52179077 0.29379281
vt 0.52494397 0.29381628
vt 0.52532052 0.29381437
vt 0.52627062 0.29584354
vt 0.52723707 0.29289160
vt 0.52728938 0.29403382
vt 0.52772324 0.29626034
vt 0.52862676 0.29571573
vt 0.53433848 0.76938261
vt 0.54069923 0.77160830
vt 0.54169249 0.76905748
vt 0.54175223 0.76765534
vt 0.54197949 0.76903607
vt 0.54464277 0.76641410
vt 0.54485437 0.77084890
vt 0.55092298 0.76761031
vt 0.57334548 0.51330144
vt 0.57510151 0.51024900
vt 0.57517581 0.51031691
vt 0.57594850 0.51077237
vt 0.57603038 0.51311357
vt 0.57698605 0.51224428
vt 0.57724209 0.50932359
vt 0.57729583 0.50901484
vt 0.61922094 0.73679825
vt 0.62598253 0.73337511
vt 0.62598694 0.73737116
vt 0.62673340 0.73421184
vt 0.62697166 0.73407173
vt 0.62865842 0.73161112
vt 0.62923114 0.73538572
vt 0.63457419 0.73091761
vt 0.66786033 0.97454260
vt 0.67935249 0.97010240
vt 0.67987586 0.97928132
vt 0.68234936 0.97573080
vt 0.68292479 0.97551279
vt 0.68349840 0.96800219
vt 0.68596042 0.97322171
vt 0.69470002 0.96791773
vt 0.70458580 2.8442587e-2
vt 0.71009745 0.73343128
vt 0.71378005 3.2494712e-2
vt 0.71452129 3.2756719e-2
vt 0.71481131 3.1937983e-2
vt 0.71655328 2.9451228e-2
vt 0.71675658 0.72819407
vt 0.71774268 0.73216936
vt 0.71823897 3.1774964e-2
vt 0.71844963 0.72835459
vt 0.71867962 0.72808642
vt 0.71878442 3.6561172e-2
vt 0.71939853 0.72586610
vt 0.72035714 0.72906650
vt 0.72467505 3.9468741e-2
vt 0.72577228 0.72317258
vt 0.72614344 0.26207153
vt 0.72990250 0.26679042
vt 0.73031659 0.26707470
vt 0.73154481 0.26777853
vt 0.73194391 0.50132126
vt 0.73290513 0.27098603
vt 0.73295749 0.26553219
vt 0.73317584 0.26795330
vt 0.73340533 0.49395822
vt 0.73350223 0.49424718
vt 0.73423096 0.49570011
vt 0.73446757 0.49817547
vt 0.73453854 0.27416775
vt 0.73507370 0.48903108
vt 0.73516517 0.49548836
vt 0.73542783 0.49326805
vt 0.79952199 0.76081025
vt 0.80663629 0.75378165
vt 0.80874620 0.75766644
vt 0.80943550 0.75089467
vt 0.80963300 0.75320082
vt 0.80989760 0.75280531
vt 0.81100963 0.75353635
vt 0.81741146 0.74636291
vt 0.89765564 0.53088604
vt 0.89944149 0.51845855
vt 0.89950402 0.51897932
vt 0.90003419 0.52235600
vt 0.90028841 0.52409304
vt 0.90127403 0.52001778
vt 0.90139351 0.51889310
vt 0.90172079 0.50966115
vt 0.94328718 0.26722328
vt 0.94678535 0.27710494
vt 0.94718482 0.27769204
vt 0.94795413 2.3853274e-2
vt 0.94932069 0.27802010
vt 0.94969197 0.28315260
vt 0.95151365 0.29030718
vt 0.95178128 0.27667228
vt 0.95192617 0.28045297
vt 0.95726408 3.3777088e-2
vt 0.95800329 3.4379061e-2
vt 0.95990412 3.3192969e-2
vt 0.96224861 3.9923125e-2
vt 0.96399937 2.9548251e-2
vt 0.96567968 3.3409635e-2
vt 0.96838151 4.7067065e-2
vn 0.44254783 0.89674490 -9.6895718e-17
vn 0.35310199 0.92408176 0.14625963
vn 0.31292857 0.89674490 0.31292857
vn 0.14625963 0.92408176 0.35310199
vn 4.7266204e-18 0.89674490 0.44254783
vn -0.14625963 0.92408176 0.35310199
vn -0.31292857 0.89674490 0.31292857
vn -0.35310199 0.92408176 0.14625963
vn -0.44254783 0.89674490 9.4532408e-18
vn -0.35310199 0.92408176 -0.14625963
vn -0.31292857 0.89674490 -0.31292857
vn -0.14625963 0.92408176 -0.35310199
vn -2.5996412e-17 0.89674490 -0.44254783
vn 0.14625963 0.92408176 -0.35310199
vn 0.31292857 0.89674490 -0.31292857
vn 0.35310199 0.92408176 -0.14625963
vn 0.70658450 0.70762868 -2.5719565e-16
vn 0.65279895 0.70762868 0.27039818
vn 0.49963069 0.70762868 0.49963069
vn 0.27039818 0.70762868 0.65279895
vn 0.0000000e+0 0.70762868 0.70658450
vn -0.27039818 0.70762868 0.65279895
vn -0.49963069 0.70762868 0.49963069
vn -0.65279895 0.70762868 0.27039818
vn -0.70658450 0.70762868 1.2145350e-16
vn -0.65279895 0.70762868 -0.27039818
vn -0.49963069 0.70762868 -0.49963069
vn -0.27039818 0.70762868 -0.65279895
vn -7.1443235e-18 0.70762868 -0.70658450
vn 0.27039818 0.70762868 -0.65279895
vn 0.49963069 0.70762868 -0.49963069
vn 0.65279895 0.70762868 -0.27039818
vn 0.92368212 0.38315969 -1.4019581e-16
vn 0.85337100 0.38315969 0.35347784
vn 0.65314189 0.38315969 0.65314189
vn 0.35347784 0.38315969 0.85337100
vn -3.5947644e-18 0.38315969 0.92368212
vn -0.35347784 0.38315969 0.85337100
vn -0.65314189 0.38315969 0.65314189
vn -0.85337100 0.38315969 0.35347784
vn -0.92368212 0.38315969 1.5098011e-16
vn -0.85337100 0.38315969 -0.35347784
vn -0.65314189 0.38315969 -0.65314189
vn -0.35347784 0.38315969 -0.85337100
vn 7.1895288e-18 0.38315969 -0.92368212
vn 0.35347784 0.38315969 -0.85337100
vn 0.65314189 0.38315969 -0.65314189
vn 0.85337100 0.38315969 -0.35347784
vn 1.00000000 0.0000000e+0 -1.0812319e-16
vn 0.92387953 3.6041063e-17 0.38268343
vn 0.70710678 1.0091498e-16 0.70710678
vn 0.38268343 3.6041063e-17 0.92387953
vn 0.0000000e+0 7.2082126e-18 1.00000000
vn -0.38268343 1.8020531e-17 0.92387953
vn -0.70710678 1.4416425e-17 0.70710678
vn -0.92387953 3.6041063e-18 0.38268343
vn -1.00000000 -7.2082126e-18 1.4416425e-16
vn -0.92387953 -5.4061594e-17 -0.38268343
vn -0.70710678 -8.6498551e-17 -0.70710678
vn -0.38268343 -1.4416425e-17 -0.92387953
vn -3.6761884e-16 7.2082126e-18 -1.00000000
vn 0.38268343 0.0000000e+0 -0.92387953
vn 0.70710678 1.4416425e-17 -0.70710678
vn 0.92387953 -3.6041063e-17 -0.38268343
vn 0.92368212 -0.38315969 -1.4019581e-16
vn 0.85337100 -0.38315969 0.35347784
vn 0.65314189 -0.38315969 0.65314189
vn 0.35347784 -0.38315969 0.85337100
vn 7.1895288e-18 -0.38315969 0.92368212
vn -0.35347784 -0.38315969 0.85337100
vn -0.65314189 -0.38315969 0.65314189
vn -0.85337100 -0.38315969 0.35347784
vn -0.92368212 -0.38315969 1.5816963e-16
vn -0.85337100 -0.38315969 -0.35347784
vn -0.65314189 -0.38315969 -0.65314189
vn -0.35347784 -0.38315969 -0.85337100
vn 7.1895288e-18 -0.38315969 -0.92368212
vn 0.35347784 -0.38315969 -0.85337100
vn 0.65314189 -0.38315969 -0.65314189
vn 0.85337100 -0.38315969 -0.35347784
vn 0.70658450 -0.70762868 -6.7871073e-17
vn 0.65279895 -0.70762868 0.27039818
vn 0.49963069 -0.70762868 0.49963069
vn 0.27039818 -0.70762868 0.65279895
vn 1.0716485e-17 -0.70762868 0.70658450
vn -0.27039818 -0.70762868 0.65279895
vn -0.49963069 -0.70762868 0.49963069
vn -0.65279895 -0.70762868 0.27039818
vn -0.70658450 -0.70762868 1.1430918e-16
vn -0.65279895 -0.70762868 -0.27039818
vn -0.49963069 -0.70762868 -0.49963069
vn -0.27039818 -0.70762868 -0.65279895
vn 3.5721617e-18 -0.70762868 -0.70658450
vn 0.27039818 -0.70762868 -0.65279895
vn 0.49963069 -0.70762868 -0.49963069
vn 0.65279895 -0.70762868 -0.27039818
vn 0.44254783 -0.89674490 2.1033461e-16
vn 0.35310199 -0.92408176 0.14625963
vn 0.31292857 -0.89674490 0.31292857
vn 0.14625963 -0.92408176 0.35310199
vn 2.3633102e-17 -0.89674490 0.44254783
vn -0.14625963 -0.92408176 0.35310199
vn -0.31292857 -0.89674490 0.31292857
vn -0.35310199 -0.92408176 0.14625963
vn -0.44254783 -0.89674490 5.4356134e-17
vn -0.35310199 -0.92408176 -0.14625963
vn -0.31292857 -0.89674490 -0.31292857
vn -0.14625963 -0.92408176 -0.35310199
vn -3.5449653e-17 -0.89674490 -0.44254783
vn 0.14625963 -0.92408176 -0.35310199
vn 0.31292857 -0.89674490 -0.31292857
vn 0.35310199 -0.92408176 -0.14625963
vn -7.0801599e-18 1.00000000 -4.3365979e-17
vn -8.8501998e-18 -1.00000000 -6.2393909e-17
g sphere1_sphere1_auv
usemtl sphere1_auv
s 1
f 1/117/1 18/87/18 17/136/17
f 1/117/1 32/151/32 16/140/16
f 1/117/1 113/102/113 2/94/2
f 2/94/2 18/87/18 1/117/1
f 2/94/2 113/102/113 3/78/3
f 3/78/3 18/87/18 2/94/2
f 3/78/3 20/30/20 19/47/19
f 3/78/3 113/102/113 4/60/4
f 4/60/4 20/30/20 3/78/3
f 4/139/4 113/99/113 5/112/5
f 5/112/5 20/149/20 4/139/4
f 5/112/5 22/85/22 21/132/21
f 5/112/5 113/99/113 6/91/6
f 6/91/6 22/85/22 5/112/5
f 6/91/6 113/99/113 7/74/7
f 7/74/7 22/85/22 6/91/6
f 7/74/7 24/26/24 23/44/23
f 7/74/7 113/99/113 8/51/8
f 8/51/8 24/26/24 7/74/7
f 8/143/8 113/103/113 9/118/9
f 9/118/9 24/150/24 8/143/8
f 9/118/9 26/86/26 25/135/25
f 9/118/9 113/103/113 10/95/10
f 10/95/10 26/86/26 9/118/9
f 10/95/10 113/103/113 11/79/11
f 11/79/11 26/86/26 10/95/10
f 11/79/11 28/31/28 27/46/27
f 11/79/11 113/103/113 12/59/12
f 12/59/12 28/31/28 11/79/11
f 12/138/12 113/98/113 13/111/13
f 13/111/13 28/148/28 12/138/12
f 13/111/13 30/84/30 29/131/29
f 13/111/13 113/98/113 14/90/14
f 14/90/14 30/84/30 13/111/13
f 14/90/14 113/98/113 15/76/15
f 15/76/15 30/84/30 14/90/14
f 15/76/15 32/29/32 31/45/31
f 15/76/15 113/98/113 16/54/16
f 16/54/16 32/29/32 15/76/15
f 16/140/16 113/102/113 1/117/1
f 17/136/17 32/151/32 1/117/1
f 17/136/17 33/127/33 32/151/32
f 18/87/18 33/127/33 17/136/17
f 18/87/18 35/39/35 34/69/34
f 19/47/19 18/87/18 3/78/3
f 19/47/19 35/39/35 18/87/18
f 20/30/20 35/39/35 19/47/19
f 20/149/20 37/126/37 36/158/36
f 21/132/21 20/149/20 5/112/5
f 21/132/21 37/126/37 20/149/20
f 22/85/22 37/126/37 21/132/21
f 22/85/22 39/40/39 38/71/38
f 23/44/23 22/85/22 7/74/7
f 23/44/23 39/40/39 22/85/22
f 24/26/24 39/40/39 23/44/23
f 24/150/24 41/124/41 40/157/40
f 25/135/25 24/150/24 9/118/9
f 25/135/25 41/124/41 24/150/24
f 26/86/26 41/124/41 25/135/25
f 26/86/26 43/37/43 42/68/42
f 27/46/27 26/86/26 11/79/11
f 27/46/27 43/37/43 26/86/26
f 28/31/28 43/37/43 27/46/27
f 28/148/28 45/128/45 44/161/44
f 29/131/29 28/148/28 13/111/13
f 29/131/29 45/128/45 28/148/28
f 30/84/30 45/128/45 29/131/29
f 30/84/30 47/38/47 46/70/46
f 31/45/31 30/84/30 15/76/15
f 31/45/31 47/38/47 30/84/30
f 32/151/32 33/127/33 48/160/48
f 32/29/32 47/38/47 31/45/31
f 33/127/33 50/58/50 49/110/49
f 33/127/33 64/166/64 48/160/48
f 34/69/34 33/127/33 18/87/18
f 34/69/34 50/58/50 33/127/33
f 35/39/35 50/58/50 34/69/34
f 35/39/35 52/6/52 51/21/51
f 36/15/36 35/39/35 20/30/20
f 36/15/36 52/6/52 35/39/35
f 37/126/37 52/165/52 36/158/36
f 37/126/37 54/62/54 53/116/53
f 38/71/38 37/126/37 22/85/22
f 38/71/38 54/62/54 37/126/37
f 39/40/39 54/62/54 38/71/38
f 39/40/39 56/8/56 55/23/55
f 40/14/40 39/40/39 24/26/24
f 40/14/40 56/8/56 39/40/39
f 41/124/41 56/164/56 40/157/40
f 41/124/41 58/56/58 57/109/57
f 42/68/42 41/124/41 26/86/26
f 42/68/42 58/56/58 41/124/41
f 43/37/43 58/56/58 42/68/42
f 43/37/43 60/5/60 59/20/59
f 44/16/44 43/37/43 28/31/28
f 44/16/44 60/5/60 43/37/43
f 45/128/45 60/167/60 44/161/44
f 45/128/45 62/61/62 61/113/61
f 46/70/46 45/128/45 30/84/30
f 46/70/46 62/61/62 45/128/45
f 47/38/47 62/61/62 46/70/46
f 47/38/47 64/7/64 63/22/63
f 48/13/48 47/38/47 32/29/32
f 48/13/48 64/7/64 47/38/47
f 49/110/49 64/166/64 33/127/33
f 49/24/49 65/36/65 64/2/64
f 50/64/50 65/36/65 49/24/49
f 50/64/50 67/133/67 66/72/66
f 51/21/51 50/58/50 35/39/35
f 51/119/51 67/133/67 50/64/50
f 52/168/52 67/133/67 51/119/51
f 52/4/52 69/35/69 68/12/68
f 53/116/53 52/165/52 37/126/37
f 53/19/53 69/35/69 52/4/52
f 54/57/54 69/35/69 53/19/53
f 54/57/54 71/123/71 70/67/70
f 55/23/55 54/62/54 39/40/39
f 55/108/55 71/123/71 54/57/54
f 56/163/56 71/123/71 55/108/55
f 56/3/56 73/34/73 72/10/72
f 57/109/57 56/164/56 41/124/41
f 57/18/57 73/34/73 56/3/56
f 58/55/58 73/34/73 57/18/57
f 58/55/58 75/122/75 74/66/74
f 59/20/59 58/56/58 43/37/43
f 59/107/59 75/122/75 58/55/58
f 60/162/60 75/122/75 59/107/59
f 60/1/60 77/33/77 76/11/76
f 61/113/61 60/167/60 45/128/45
f 61/17/61 77/33/77 60/1/60
f 62/50/62 77/33/77 61/17/61
f 62/50/62 79/121/79 78/65/78
f 63/22/63 62/61/62 47/38/47
f 63/105/63 79/121/79 62/50/62
f 64/2/64 65/36/65 80/9/80
f 64/156/64 79/121/79 63/105/63
f 65/36/65 82/81/82 81/41/81
f 65/36/65 96/25/96 80/9/80
f 66/72/66 65/36/65 50/64/50
f 66/72/66 82/81/82 65/36/65
f 67/133/67 82/81/82 66/72/66
f 67/133/67 84/145/84 83/125/83
f 68/159/68 67/133/67 52/168/52
f 68/159/68 84/145/84 67/133/67
f 69/35/69 84/27/84 68/12/68
f 69/35/69 86/83/86 85/42/85
f 70/67/70 69/35/69 54/57/54
f 70/67/70 86/83/86 69/35/69
f 71/123/71 86/83/86 70/67/70
f 71/123/71 88/147/88 87/130/87
f 72/155/72 71/123/71 56/163/56
f 72/155/72 88/147/88 71/123/71
f 73/34/73 88/28/88 72/10/72
f 73/34/73 90/82/90 89/43/89
f 74/66/74 73/34/73 58/55/58
f 74/66/74 90/82/90 73/34/73
f 75/122/75 90/82/90 74/66/74
f 75/122/75 92/146/92 91/129/91
f 76/154/76 75/122/75 60/162/60
f 76/154/76 92/146/92 75/122/75
f 77/33/77 92/32/92 76/11/76
f 77/33/77 94/88/94 93/48/93
f 78/65/78 77/33/77 62/50/62
f 78/65/78 94/88/94 77/33/77
f 79/121/79 94/88/94 78/65/78
f 79/121/79 96/152/96 95/134/95
f 80/153/80 79/121/79 64/156/64
f 80/153/80 96/152/96 79/121/79
f 81/41/81 96/25/96 65/36/65
f 81/41/81 97/73/97 96/25/96
f 82/81/82 97/73/97 81/41/81
f 82/81/82 99/106/99 98/89/98
f 83/125/83 82/81/82 67/133/67
f 83/125/83 99/106/99 82/81/82
f 84/145/84 99/106/99 83/125/83
f 84/27/84 101/75/101 100/52/100
f 85/42/85 84/27/84 69/35/69
f 85/42/85 101/75/101 84/27/84
f 86/83/86 101/75/101 85/42/85
f 86/83/86 103/114/103 102/92/102
f 87/130/87 86/83/86 71/123/71
f 87/130/87 103/114/103 86/83/86
f 88/147/88 103/114/103 87/130/87
f 88/28/88 105/77/105 104/53/104
f 89/43/89 88/28/88 73/34/73
f 89/43/89 105/77/105 88/28/88
f 90/82/90 105/77/105 89/43/89
f 90/82/90 107/115/107 106/93/106
f 91/129/91 90/82/90 75/122/75
f 91/129/91 107/115/107 90/82/90
f 92/146/92 107/115/107 91/129/91
f 92/32/92 109/80/109 108/63/108
f 93/48/93 92/32/92 77/33/77
f 93/48/93 109/80/109 92/32/92
f 94/88/94 109/80/109 93/48/93
f 94/88/94 111/120/111 110/96/110
f 95/134/95 94/88/94 79/121/79
f 95/134/95 111/120/111 94/88/94
f 96/25/96 97/73/97 112/49/112
f 96/152/96 111/120/111 95/134/95
f 97/73/97 114/97/114 112/49/112
f 98/89/98 97/73/97 82/81/82
f 98/89/98 114/97/114 97/73/97
f 99/106/99 114/97/114 98/89/98
f 100/137/100 99/106/99 84/145/84
f 100/137/100 114/97/114 99/106/99
f 101/75/101 114/100/114 100/52/100
f 102/92/102 101/75/101 86/83/86
f 102/92/102 114/100/114 101/75/101
f 103/114/103 114/100/114 102/92/102
f 104/141/104 103/114/103 88/147/88
f 104/141/104 114/100/114 103/114/103
f 105/77/105 114/101/114 104/53/104
f 106/93/106 105/77/105 90/82/90
f 106/93/106 114/101/114 105/77/105
f 107/115/107 114/101/114 106/93/106
f 108/142/108 107/115/107 92/146/92
f 108/142/108 114/101/114 107/115/107
f 109/80/109 114/104/114 108/63/108
f 110/96/110 109/80/109 94/88/94
f 110/96/110 114/104/114 109/80/109
f 111/120/111 114/104/114 110/96/110
f 112/144/112 111/120/111 96/152/96
f 112/144/112 114/104/114 111/120/111
